<?xml version="1.0" encoding="utf-8"?>
<svg version="1.1" id="Layer_1" xmlns="http://www.w3.org/2000/svg" xmlns:xlink="http://www.w3.org/1999/xlink" x="0px" y="0px"
	 viewBox="0 0 42 41.3" style="enable-background:new 0 0 42 41.3;" xml:space="preserve">
<style type="text/css">
	.st0{clip-path:url(#SVGID_2_);fill:none;stroke:#231F20;stroke-width:1.417;stroke-miterlimit:22.926;}
</style>
<g>
	<defs>
		<rect id="SVGID_1_" x="7.2" y="0.8" width="27.6" height="39.7"/>
	</defs>
	<clipPath id="SVGID_2_">
		<use xlink:href="#SVGID_1_"  style="overflow:visible;"/>
	</clipPath>
	<path class="st0" d="M30.1,3.6c-0.3-2.9-5.4-2.9-5.7,0c-0.1,0.8,0.1,2.6,0.5,3.2c0.3,0.6,1.1,1.2,1.9,1.4c0.4,0.1,0.5,0.1,0.9,0
		c0.8-0.2,1.6-0.8,1.9-1.4C30,6.1,30.1,4.3,30.1,3.6z M30.7,40.4l0.7-13.8V14.7 M27.2,40.4V26.8 M20.7,31.7v8.7 M12.4,19.7
		c1.5,1.5,3.5,4.1,5,5.6c0.3,4.9,0.4,10.2,0.8,15 M28,18.4L23.4,22c-0.2,0.1-5.1,0.1-5.3,0l-4.6-3.6 M23.4,40.4
		c0.3-4.9,0.4-10.2,0.8-15c1.5-1.5,3.5-4.1,5-5.6 M18.4,17.8c0.1-1.2,1.2-1.8,2.4-1.8s2.3,0.6,2.4,1.8c0.1,0.6-0.1,2.1-0.4,2.7
		c-0.3,0.5-0.9,1-1.6,1.1c-0.3,0.1-0.4,0.1-0.8,0c-0.7-0.2-1.3-0.6-1.6-1.1C18.4,19.9,18.3,18.4,18.4,17.8z M10.6,14.7l0.7,3.4
		l-2.3,12l2.8,0l0.7,10.2 M7.8,26.7l1-13.5c0.3-4.3,10.8-4.3,11.1,0l0.1,1.2 M17.2,3.6c-0.3-2.9-5.4-2.9-5.7,0
		c-0.1,0.8,0.1,2.6,0.5,3.2C12.3,7.4,13,8,13.9,8.2c0.4,0.1,0.5,0.1,0.9,0c0.8-0.2,1.6-0.8,1.9-1.4C17.1,6.1,17.3,4.3,17.2,3.6z
		 M14.6,29.5v10.9 M34.2,26.7l-0.1-13.5c0-2.1-3.4-3.2-6.9-3.2c-2.3,0-4.5,0.2-6.8,1.1"/>
</g>
</svg>
