<?xml version="1.0" encoding="utf-8"?>
<svg version="1.1" id="Layer_1" xmlns="http://www.w3.org/2000/svg" xmlns:xlink="http://www.w3.org/1999/xlink" x="0px" y="0px"
	 viewBox="0 0 42 41.3" style="enable-background:new 0 0 42 41.3;" xml:space="preserve">
<style type="text/css">
	.st0{clip-path:url(#SVGID_2_);fill:none;stroke:#505050;stroke-width:2;stroke-miterlimit:10;}
</style>
<g>
	<defs>
		<rect id="SVGID_1_" y="0.1" width="42" height="41.1"/>
	</defs>
	<clipPath id="SVGID_2_">
		<use xlink:href="#SVGID_1_"  style="overflow:visible;"/>
	</clipPath>
	<path class="st0" d="M27.5,40.3l-5.7-8.5l10-6.5l3.8,5.8c-0.1,0.4-1.4,1.2-2,1.7c-0.7-0.4-2-0.3-2.2-0.3c-0.4,0.1-1.4,1.5-1.6,1.8
		c-0.1,0.1-1.4,0.9-1.4,1.2c0.1,1.7,1.4,3.2,2.3,2.9c2.5-0.8,7-3.2,9.4-5.8c1.2-1.3,1.4-2.9,0.3-4.3l-5.4-8.6
		c-1.6-2.1-6.9-3.2-9.4-3.2c-2.5,0-8,1.3-9.6,3.3c-1.4,1.8-4.4,6-5.6,7L7,25c-0.5-1,0.2-1.4,0.1-2.3c-0.1-0.4-2.8-2.8-3.2-2.9
		C2,19.4,0.4,22.7,1,24c0.5,1.1,1.3,2.1,1.7,2.5c6.1,7.2,6.3,7.9,8.2,8c2.1,0.1,5.9-3.8,6.5-4.6v11.4"/>
	<path class="st0" d="M26.2,0.9c2.9,0,5.3,1.7,5.3,6.6c0,4.8-2.4,6.6-5.3,6.6c-2.9,0-5.3-1.7-5.3-6.6C21,2.7,23.3,0.9,26.2,0.9"/>
	<line class="st0" x1="3.5" y1="4.4" x2="3.5" y2="20.2"/>
</g>
</svg>
