<?xml version="1.0" encoding="UTF-8"?>
<svg width="21px" height="11px" viewBox="0 0 21 11" version="1.1" xmlns="http://www.w3.org/2000/svg" xmlns:xlink="http://www.w3.org/1999/xlink">
    <!-- Generator: Sketch 43.1 (39012) - http://www.bohemiancoding.com/sketch -->
    <title>Arrow-down - simple-line-icons</title>
    <desc>Created with Sketch.</desc>
    <defs></defs>
    <g id="Page-1" stroke="none" stroke-width="1" fill="none" fill-rule="evenodd">
        <path d="M0.25625,0.62109375 C0.25625,0.542968359 0.272525879,0.461588965 0.305078125,0.376953125 C0.337630371,0.292317285 0.386458008,0.217448242 0.4515625,0.15234375 C0.581771484,0.0351556641 0.738019922,-0.0234375 0.9203125,-0.0234375 C1.10260508,-0.0234375 1.25885352,0.0351556641 1.3890625,0.15234375 L10.2171875,8.98046875 L18.9085938,0.2890625 C19.0388027,0.158853516 19.1950512,0.09375 19.3773438,0.09375 C19.5596363,0.09375 19.7158848,0.158853516 19.8460938,0.2890625 C19.9763027,0.419271484 20.0414063,0.575519922 20.0414063,0.7578125 C20.0414063,0.940105078 19.9763027,1.09635352 19.8460938,1.2265625 L10.6859375,10.3867188 C10.5557285,10.5169277 10.3994801,10.5820312 10.2171875,10.5820312 C10.0348949,10.5820312 9.87864648,10.5169277 9.7484375,10.3867188 L0.4515625,1.109375 C0.386458008,1.04427051 0.337630371,0.969401465 0.305078125,0.884765625 C0.272525879,0.800129785 0.25625,0.712240039 0.25625,0.62109375 Z" id="Arrow-down---simple-line-icons" fill="#009992"></path>
    </g>
</svg>