<?xml version="1.0" encoding="utf-8"?>
<svg version="1.1" id="Layer_1" xmlns="http://www.w3.org/2000/svg" xmlns:xlink="http://www.w3.org/1999/xlink" x="0px" y="0px"
	 viewBox="0 0 42 41.3" style="enable-background:new 0 0 42 41.3;" xml:space="preserve">
<style type="text/css">
	.st0{fill:none;stroke:#231F20;stroke-width:2.2677;stroke-miterlimit:10;}
</style>
<path class="st0" d="M40.9,16.3c-0.7-2-9.6-0.1-12.3-1.6C25.5,13,21.3,2.9,21,2.9S16.5,13,13.4,14.7c-2.7,1.5-11.7-0.4-12.3,1.6
	c-0.7,2,9.2,6.8,10,9.1c0.5,1.6-5,11.2-3.2,12.8c1.9,1.6,11.5-4.7,13.1-5.8c1.7,1.2,11.2,7.4,13.1,5.8c1.8-1.5-3.7-11.1-3.2-12.8
	C31.7,23,41.6,18.2,40.9,16.3z"/>
</svg>
