<?xml version="1.0" encoding="utf-8"?>
<!-- Generator: Adobe Illustrator 19.2.0, SVG Export Plug-In . SVG Version: 6.00 Build 0)  -->
<svg version="1.1" id="Layer_1" xmlns="http://www.w3.org/2000/svg" xmlns:xlink="http://www.w3.org/1999/xlink" x="0px" y="0px"
	 viewBox="0 0 21 11" style="enable-background:new 0 0 21 11;" xml:space="preserve">
<style type="text/css">
	.st0{fill:#FFFFFF;}
</style>
<title>icon-search_arrow</title>
<desc>Created with Sketch.</desc>
<g id="Page-1">
	<g id="icon-search_arrow" transform="translate(0.000000, -1.000000)">
		<path id="Arrow-down---simple-line-icons" class="st0" d="M0.3,1.6c0-0.1,0-0.2,0-0.2s0.1-0.2,0.1-0.2C0.6,1,0.7,1,0.9,1
			S1.3,1,1.4,1.2l8.8,8.8l8.7-8.7c0.1-0.1,0.3-0.2,0.5-0.2s0.3,0.1,0.5,0.2S20,1.6,20,1.8S20,2.1,19.8,2.2l-9.2,9.2
			c-0.1,0.1-0.3,0.2-0.5,0.2c-0.2,0-0.3-0.1-0.5-0.2L0.5,2.1C0.4,2,0.3,2,0.3,1.9S0.3,1.7,0.3,1.6z"/>
	</g>
</g>
</svg>
