<?xml version="1.0" encoding="UTF-8"?>
<svg width="21px" height="11px" viewBox="0 0 21 11" version="1.1" xmlns="http://www.w3.org/2000/svg" xmlns:xlink="http://www.w3.org/1999/xlink">
    <!-- Generator: Sketch 43.1 (39012) - http://www.bohemiancoding.com/sketch -->
    <title>icon-search_arrow</title>
    <desc>Created with Sketch.</desc>
    <defs></defs>
    <g id="Page-1" stroke="none" stroke-width="1" fill="none" fill-rule="evenodd">
        <g id="icon-search_arrow" transform="translate(0.000000, -1.000000)" fill-rule="nonzero" fill="#000000">
            <path d="M0.25625,1.62109375 C0.25625,1.54296836 0.272525879,1.46158897 0.305078125,1.37695312 C0.337630371,1.29231728 0.386458008,1.21744824 0.4515625,1.15234375 C0.581771484,1.03515566 0.738019922,0.9765625 0.9203125,0.9765625 C1.10260508,0.9765625 1.25885352,1.03515566 1.3890625,1.15234375 L10.2171875,9.98046875 L18.9085938,1.2890625 C19.0388027,1.15885352 19.1950512,1.09375 19.3773438,1.09375 C19.5596363,1.09375 19.7158848,1.15885352 19.8460938,1.2890625 C19.9763027,1.41927148 20.0414063,1.57551992 20.0414063,1.7578125 C20.0414063,1.94010508 19.9763027,2.09635352 19.8460938,2.2265625 L10.6859375,11.3867188 C10.5557285,11.5169277 10.3994801,11.5820312 10.2171875,11.5820312 C10.0348949,11.5820312 9.87864648,11.5169277 9.7484375,11.3867188 L0.4515625,2.109375 C0.386458008,2.04427051 0.337630371,1.96940147 0.305078125,1.88476562 C0.272525879,1.80012978 0.25625,1.71224004 0.25625,1.62109375 Z" id="Arrow-down---simple-line-icons"></path>
        </g>
    </g>
</svg>