<?xml version="1.0" encoding="utf-8"?>
<!-- Generator: Adobe Illustrator 19.2.0, SVG Export Plug-In . SVG Version: 6.00 Build 0)  -->
<svg version="1.1" id="Layer_1" xmlns="http://www.w3.org/2000/svg" xmlns:xlink="http://www.w3.org/1999/xlink" x="0px" y="0px"
	 viewBox="0 0 256 256" style="enable-background:new 0 0 256 256;" xml:space="preserve">
<style type="text/css">
	.st0{clip-path:url(#SVGID_2_);fill:#414042;}
</style>
<g>
	<defs>
		<rect id="SVGID_1_" width="256" height="256"/>
	</defs>
	<clipPath id="SVGID_2_">
		<use xlink:href="#SVGID_1_"  style="overflow:visible;"/>
	</clipPath>
	<path class="st0" d="M92,16c-42,0-76,34-76,76s34,76,76,76s76-34,76-76S134,16,92,16 M92,160c-37.5,0-68-30.5-68-68
		c0-37.5,30.5-68,68-68c37.5,0,68,30.5,68,68C160,129.5,129.5,160,92,160"/>
	<path class="st0" d="M92,32c-33.1,0-60,26.9-60,60c0,2.2,1.8,4,4,4s4-1.8,4-4c0-28.7,23.3-52,52-52c2.2,0,4-1.8,4-4
		C96,33.8,94.2,32,92,32"/>
	<path class="st0" d="M250.1,221.9l-44-44c-3.9-3.9-9-5.9-14.1-5.9c-0.9,0-1.9,0.1-2.8,0.2L165,148c11.9-15.5,19-34.9,19-56
		c0-50.8-41.2-92-92-92S0,41.2,0,92s41.2,92,92,92c21.1,0,40.5-7.1,56-19l24.2,24.2c-0.8,6,1,12.3,5.6,17l44,44
		c3.9,3.9,9,5.9,14.1,5.9c5.1,0,10.2-2,14.1-5.9C258,242.3,258,229.7,250.1,221.9 M92,176c-46.3,0-84-37.7-84-84C8,45.7,45.7,8,92,8
		c46.3,0,84,37.7,84,84C176,138.3,138.3,176,92,176 M175.3,181l-21.2-21.2c2-1.8,3.9-3.7,5.7-5.7l21.2,21.2
		c-1.1,0.7-2.1,1.6-3.1,2.5C176.9,178.8,176,179.9,175.3,181 M244.5,244.5c-2.3,2.3-5.3,3.5-8.5,3.5c-3.2,0-6.2-1.2-8.5-3.5l-44-44
		c-4.7-4.7-4.7-12.3,0-17c2.3-2.3,5.3-3.5,8.5-3.5s6.2,1.2,8.5,3.5l44,44C249.2,232.2,249.2,239.8,244.5,244.5"/>
</g>
</svg>
