<?xml version="1.0" encoding="UTF-8"?>
<svg width="21px" height="21px" viewBox="0 0 21 21" version="1.1" xmlns="http://www.w3.org/2000/svg" xmlns:xlink="http://www.w3.org/1999/xlink">
    <!-- Generator: Sketch 43.1 (39012) - http://www.bohemiancoding.com/sketch -->
    <title>magnifier - simple-line-icons</title>
    <desc>Created with Sketch.</desc>
    <defs></defs>
    <g id="Page-1" stroke="none" stroke-width="1" fill="none" fill-rule="evenodd">
        <path d="M19.9242188,19.1757812 C20.0414068,19.2929693 20.1,19.4394522 20.1,19.6152344 C20.1,19.7910165 20.0414068,19.9374994 19.9242188,20.0546875 C19.7940098,20.1848965 19.6442717,20.25 19.475,20.25 C19.3057283,20.25 19.1559902,20.1848965 19.0257813,20.0546875 L12.9710938,13.9609375 C12.2809861,14.5598988 11.4997439,15.0286441 10.6273438,15.3671875 C9.75494355,15.7057309 8.83047363,15.875 7.85390625,15.875 C6.77317168,15.875 5.75755684,15.6699239 4.80703125,15.2597656 C3.85650566,14.8496073 3.02643584,14.2929723 2.31679688,13.5898438 C1.60715791,12.8867152 1.05052285,12.0599006 0.646875,11.109375 C0.243227148,10.1588494 0.04140625,9.14323457 0.04140625,8.0625 C0.04140625,6.98176543 0.243227148,5.96615059 0.646875,5.015625 C1.05052285,4.06509941 1.60715791,3.23828477 2.31679688,2.53515625 C3.02643584,1.83202773 3.85650566,1.27539268 4.80703125,0.865234375 C5.75755684,0.455076074 6.77317168,0.25 7.85390625,0.25 C8.92161992,0.25 9.93072441,0.455076074 10.88125,0.865234375 C11.8317756,1.27539268 12.6618454,1.83202773 13.3714844,2.53515625 C14.0811233,3.23828477 14.6410136,4.06509941 15.0511719,5.015625 C15.4613302,5.96615059 15.6664063,6.98176543 15.6664063,8.0625 C15.6664063,9.01302559 15.5036475,9.91470928 15.178125,10.7675781 C14.8526025,11.620447 14.4098986,12.3854133 13.85,13.0625 L19.9242188,19.1757812 Z M7.85390625,14.6445312 C8.75234824,14.6445312 9.60194912,14.4720069 10.4027344,14.1269531 C11.2035196,13.7818993 11.9001272,13.3098988 12.4925781,12.7109375 C13.085029,12.1119762 13.5537743,11.4153686 13.8988281,10.6210938 C14.2438819,9.82681895 14.4164063,8.97396289 14.4164063,8.0625 C14.4164063,7.15103711 14.2438819,6.29818105 13.8988281,5.50390625 C13.5537743,4.70963145 13.085029,4.01302383 12.4925781,3.4140625 C11.9001272,2.81510117 11.2035196,2.34310068 10.4027344,1.99804688 C9.60194912,1.65299307 8.75234824,1.48046875 7.85390625,1.48046875 C6.94244336,1.48046875 6.08633213,1.65299307 5.28554688,1.99804688 C4.48476162,2.34310068 3.788154,2.81510117 3.19570313,3.4140625 C2.60325225,4.01302383 2.13450693,4.70963145 1.78945313,5.50390625 C1.44439932,6.29818105 1.271875,7.15103711 1.271875,8.0625 C1.271875,8.97396289 1.44439932,9.82681895 1.78945313,10.6210938 C2.13450693,11.4153686 2.60325225,12.1119762 3.19570313,12.7109375 C3.788154,13.3098988 4.48476162,13.7818993 5.28554688,14.1269531 C6.08633213,14.4720069 6.94244336,14.6445312 7.85390625,14.6445312 Z" id="magnifier---simple-line-icons" fill="#009992"></path>
    </g>
</svg>